<svg width="211" height="40" viewBox="0 0 211 40" fill="none" xmlns="http://www.w3.org/2000/svg">
<path d="M0 20C0 10.5719 0 5.85786 2.92893 2.92893C5.85786 0 10.5719 0 20 0C29.4281 0 34.1421 0 37.0711 2.92893C40 5.85786 40 10.5719 40 20C40 29.4281 40 34.1421 37.0711 37.0711C34.1421 40 29.4281 40 20 40C10.5719 40 5.85786 40 2.92893 37.0711C0 34.1421 0 29.4281 0 20Z" fill="white"/>
<path d="M24 26C24.5523 26 25.0101 26.4521 24.9004 26.9934C24.7065 27.9494 24.2355 28.8355 23.5355 29.5355C22.5979 30.4732 21.3261 31 20 31C18.6739 31 17.4022 30.4732 16.4645 29.5355C15.7645 28.8355 15.2935 27.9494 15.0997 26.9934C14.9899 26.4521 15.4477 26 16 26H24Z" fill="#222222"/>
<path d="M26.1023 17.7765C25.5688 17.9194 25.2421 18.4775 25.5126 18.959C25.7973 19.4658 26.1911 19.9081 26.6702 20.2514C27.4224 20.7904 28.3382 21.052 29.2617 20.9914C30.1851 20.9309 31.059 20.5521 31.7344 19.9195C32.4099 19.2869 32.845 18.4396 32.9658 17.5221C33.0866 16.6046 32.8856 15.6736 32.3969 14.8877C31.9082 14.1019 31.1621 13.5098 30.2858 13.2123C29.4095 12.9148 28.4572 12.9304 27.5911 13.2564C27.0395 13.464 26.5447 13.7893 26.1385 14.2051C25.7526 14.6002 25.9237 15.2239 26.402 15.5L26.9093 15.7929C27.6808 16.2384 27.5287 17.3943 26.6681 17.6249L26.1023 17.7765Z" fill="#222222"/>
<path d="M13.8978 17.7765C14.4313 17.9194 14.758 18.4775 14.4875 18.959C14.2028 19.4658 13.809 19.9081 13.33 20.2514C12.5778 20.7904 11.6619 21.052 10.7385 20.9914C9.81502 20.9309 8.94113 20.5521 8.2657 19.9195C7.59027 19.2869 7.15508 18.4396 7.03429 17.5221C6.9135 16.6046 7.11457 15.6736 7.60326 14.8877C8.09194 14.1019 8.838 13.5098 9.71431 13.2123C10.5906 12.9148 11.543 12.9304 12.4091 13.2564C12.9606 13.464 13.4555 13.7893 13.8617 14.2051C14.2476 14.6002 14.0764 15.2239 13.5981 15.5L13.0908 15.7929C12.3193 16.2384 12.4715 17.3943 13.332 17.6249L13.8978 17.7765Z" fill="#222222"/>
<path d="M54.736 11.24H50.848V29H54.736V11.24ZM61.6818 29V22.424C61.6818 20.936 62.6178 19.976 64.0818 19.976C65.3538 19.976 66.1938 20.96 66.1938 22.472V29H69.8898V21.584C69.8898 18.44 68.2338 16.616 65.3778 16.616C63.8178 16.616 62.4498 17.216 61.7058 18.248L61.4658 17H57.9858V29H61.6818ZM81.1804 29H84.9004V17H76.7644V16.04C76.7644 15.008 77.0764 14.216 78.3484 14.216H79.3804V11.048C78.8044 10.952 78.2284 10.904 77.7244 10.904C74.9164 10.904 73.0684 12.464 73.0684 16.04V17H71.4124V20.072H73.0684V29H76.7644V20.072H81.1804V29ZM83.0524 15.128C84.2044 15.128 85.1404 14.192 85.1404 13.016C85.1404 11.84 84.2044 10.928 83.0524 10.928C81.8764 10.928 80.9404 11.84 80.9404 13.016C80.9404 14.192 81.8764 15.128 83.0524 15.128ZM91.4005 29V22.424C91.4005 20.936 92.3365 19.976 93.8005 19.976C95.0725 19.976 95.9125 20.96 95.9125 22.472V29H99.6085V21.584C99.6085 18.44 97.9525 16.616 95.0965 16.616C93.5365 16.616 92.1685 17.216 91.4245 18.248L91.1845 17H87.7045V29H91.4005ZM104.083 15.128C105.235 15.128 106.171 14.192 106.171 13.016C106.171 11.84 105.235 10.928 104.083 10.928C102.907 10.928 101.971 11.84 101.971 13.016C101.971 14.192 102.907 15.128 104.083 15.128ZM102.259 29H105.955V17H102.259V29ZM113.576 29V20.072H115.856V17H113.576V13.28H109.88V17H107.6V20.072H109.88V29H113.576ZM116.557 34.76C117.277 34.976 118.117 35.096 119.005 35.096C121.117 35.096 122.461 34.064 123.469 31.616L129.565 17H125.725L122.821 24.704L120.205 17H116.245L121.069 29.408L120.853 29.984C120.373 31.28 119.845 31.664 118.597 31.664H116.557V34.76ZM136.911 16.4C136.911 19.304 138.543 21.104 141.711 21.752L144.423 22.304C145.599 22.544 146.055 23.048 146.055 24.032C146.055 25.16 144.951 25.856 143.199 25.856C141.471 25.856 140.511 25.136 140.511 23.84H136.647C136.647 27.176 139.215 29.312 143.175 29.312C147.255 29.312 149.943 27.08 149.943 23.648C149.943 20.84 148.431 19.328 145.263 18.68L142.599 18.128C141.351 17.864 140.799 17.336 140.799 16.256C140.799 15.08 141.807 14.36 143.391 14.36C144.855 14.36 145.791 15.128 145.791 16.376H149.655C149.655 13.016 147.255 10.904 143.439 10.904C139.623 10.904 136.911 13.184 136.911 16.4ZM156.912 29V20.072H159.192V17H156.912V13.28H153.216V17H150.936V20.072H153.216V29H156.912ZM168.821 17V23.24C168.821 25.208 168.173 26.024 166.589 26.024C165.077 26.024 164.405 25.16 164.405 23.192V17H160.709V24.536C160.709 27.488 162.389 29.312 165.125 29.312C166.565 29.312 168.053 28.64 168.797 27.656L169.037 29H172.517V17H168.821ZM180.096 29.312C181.824 29.312 183.312 28.568 183.96 27.464L184.152 29H187.632V10.904H183.936V18.104C183.24 17.216 181.824 16.616 180.336 16.616C176.688 16.616 174.408 19.256 174.408 23.072C174.408 26.864 176.64 29.312 180.096 29.312ZM180.984 25.928C179.232 25.928 178.128 24.704 178.128 22.928C178.128 21.152 179.232 19.928 180.984 19.928C182.712 19.928 183.912 21.128 183.912 22.928C183.912 24.728 182.712 25.928 180.984 25.928ZM192.232 15.128C193.384 15.128 194.32 14.192 194.32 13.016C194.32 11.84 193.384 10.928 192.232 10.928C191.056 10.928 190.12 11.84 190.12 13.016C190.12 14.192 191.056 15.128 192.232 15.128ZM190.408 29H194.104V17H190.408V29ZM196.228 22.976C196.228 26.768 199.012 29.288 202.852 29.288C206.668 29.288 209.452 26.768 209.452 22.976C209.452 19.184 206.668 16.64 202.852 16.64C199.012 16.64 196.228 19.184 196.228 22.976ZM199.948 22.952C199.948 21.152 201.124 19.952 202.852 19.952C204.556 19.952 205.732 21.152 205.732 22.952C205.732 24.776 204.556 25.976 202.852 25.976C201.124 25.976 199.948 24.776 199.948 22.952Z" fill="white"/>
</svg>
